/* XPM */
static char *_1629_b8d17690aa8d4119d5e4bd50819014dd7ed96dba4f6e79ec5114b0a05fd6183b[] = {
/* columns rows colors chars-per-pixel */
"32 32 175 2 ",
"   c #141515",
".  c #191717",
"X  c #1A1A19",
"o  c #2C1C1B",
"O  c #3F1C1C",
"+  c #21201E",
"@  c #2C211E",
"#  c #30231F",
"$  c #201F21",
"%  c #242425",
"&  c #2B2B2C",
"*  c #2B2925",
"=  c #332521",
"-  c #382725",
";  c #352923",
":  c #3C2B24",
">  c #332F2B",
",  c #3B2F29",
"<  c #3D322C",
"1  c #2F2F31",
"2  c #323132",
"3  c #3F3936",
"4  c #373738",
"5  c #3B3B3D",
"6  c #401C1C",
"7  c #422D25",
"8  c #49262C",
"9  c #452F28",
"0  c #402623",
"q  c #582827",
"w  c #572F2A",
"e  c #522725",
"r  c #44332A",
"t  c #4C352B",
"y  c #54392D",
"u  c #5A3D2F",
"i  c #4C3C36",
"p  c #423E3B",
"a  c #4C3F3B",
"s  c #5B3E30",
"d  c #573F34",
"f  c #6F2E2C",
"g  c #692525",
"h  c #722D2D",
"j  c #62302C",
"k  c #6E3B37",
"l  c #743332",
"z  c #4D453C",
"x  c #47433B",
"c  c #5E4032",
"v  c #54433C",
"b  c #5F433C",
"n  c #684735",
"m  c #6A4936",
"M  c #644434",
"N  c #73403C",
"B  c #3F3F42",
"V  c #3F4040",
"C  c #444445",
"Z  c #4D4943",
"A  c #4A4A4B",
"S  c #554945",
"D  c #5C4B45",
"F  c #5C4E4A",
"G  c #564A46",
"H  c #50504F",
"J  c #5E554C",
"K  c #5A5246",
"L  c #484B53",
"P  c #4D515A",
"I  c #535354",
"U  c #5C5757",
"Y  c #5A5A5C",
"T  c #585758",
"R  c #694E42",
"E  c #644E41",
"W  c #645B4E",
"Q  c #6A5446",
"!  c #725B4B",
"~  c #665557",
"^  c #7D5F5F",
"/  c #76604F",
"(  c #68615E",
")  c #6C6457",
"_  c #766252",
"`  c #7E6856",
"'  c #72695B",
"]  c #786758",
"[  c #4E4B60",
"{  c #5D5D61",
"}  c #545167",
"|  c #6E4C69",
" . c #704E6D",
".. c #675B68",
"X. c #635360",
"o. c #725777",
"O. c #636365",
"+. c #666669",
"@. c #6B6B6C",
"#. c #696563",
"$. c #736D6B",
"%. c #787061",
"&. c #636774",
"*. c #6E6E70",
"=. c #737373",
"-. c #7C7C7C",
";. c #7A7676",
":. c #8B2F31",
">. c #803434",
",. c #9C3536",
"<. c #963334",
"1. c #AD373A",
"2. c #A23739",
"3. c #B3393B",
"4. c #BF3C3F",
"5. c #C03C3F",
"6. c #B74343",
"7. c #BD4A48",
"8. c #806A58",
"9. c #8A6E5D",
"0. c #807564",
"q. c #807F7F",
"w. c #947765",
"e. c #A26767",
"r. c #AD7475",
"t. c #C44144",
"y. c #C24D4B",
"u. c #C2504D",
"i. c #C75552",
"p. c #C85653",
"a. c #93816B",
"s. c #9B856F",
"d. c #8F8370",
"f. c #968670",
"g. c #BE8F78",
"h. c #AE987E",
"j. c #A8967C",
"k. c #C48E79",
"l. c #C2927C",
"z. c #6C6786",
"x. c #7F8080",
"c. c #838383",
"v. c #888787",
"b. c #8C8C8C",
"n. c #929292",
"m. c #A99C86",
"M. c #B89C83",
"N. c #BCA689",
"B. c #B8A68C",
"V. c #BCAC92",
"C. c #C59E86",
"Z. c #C6A287",
"A. c #C3AA8D",
"S. c #CCAD94",
"D. c #C6B195",
"F. c #CCB697",
"G. c #CBB798",
"H. c #CEBA9B",
"J. c #C5B59B",
"K. c #D1BC9D",
"L. c #DAB99D",
"P. c #CEA6A6",
"I. c #D5AEAF",
"U. c #DEC2A5",
"Y. c #DBC7A8",
"T. c #DCCAAB",
"R. c #D6C5A7",
"E. c #E4C5A8",
"W. c #E3CDAE",
"Q. c #E4D0AF",
"!. c #E1CFB0",
"~. c #E6D3B4",
"^. c #E9D6B5",
"/. c #EBD8B7",
"(. c #EAC5C6",
/* pixels */
"b.c.;.x.b.x.;.x.b.-.;.c.v.-.-.v.v.=.-.v.c.=.-.b.d.=.x.b.-.=.v.b.",
"=.-.b.c.=.-.b.-.=.c.b.;.=.v.b.=.=.b.v.=.-.b.c.=.z.b.x.=.x.b.-.=.",
"b.c.@.-.b.x.=.c.b.-.=.c.b.=.=.b.b.=.=.b.c.=.-.b.v.=.x.b.-.=.x.b.",
"=.-.b.c.=.x.b.-.=.c.b.-.=.v.b.=.=.b.b.=.-.b.c.=.x.n.x.*.x.b.-.=.",
"n.c.=.-.b.-.=.c.b.-.=.c.b.;.=.b.b.=.;.b.b.*.-.b.x.=.x.b.x.=.x.n.",
"=.-.b.c.=.c.b.-.=.c.b.-.=.v.b.=.=.v.c.@.;.b.c.=.x.b.x.=.d.b.-.=.",
"v.c.=.-.b.x.=.c.b.-.=.c.v.;.=.v.c.F v i S @.;.b.x.*.x.b.x.=.x.b.",
"=.-.b.x.;.-.b.-.=.K i v D z x S F c c c c x v F x & L =.x.b.x.=.",
"v.x.;.x.v.$.J S i c c u c c c c y y t ; : u u c y t < > Y ;.x.v.",
"-.x.c.=.~ E u u u M m m m m n n m c y t y m M y t ; 3 C @.v.x.-.",
"c.c.x.~ 7 y m m m y y y y t y y y y y m m m m u r @ > 5 ( x.x.c.",
"x.@.K v y y y y y ! ` ] ` ` ` ` ` ] / y y y y y t 9 : @ 2 V @.x.",
"-.#.7 t s E / / _ M.K.K.K.K.K.K.K.K.A.` / / m : 7 r 7 r +   T x.",
"v.#.; ; 7 8.A.D.H.W./.^.~.^.~.~.~.^.!.K.H.H.m./ v # # # 3 Z *.v.",
";.I   < Q s.G.Y.~.V.m.Y.^.~.~.^.~.^.Y.m.V.~.T.F.f.z &   T b.-.;.",
"b.*.4 J w.V.^.~.~.J X m./.~.~.~.^.^.V.+ z Q.~.^.D.a.J & I ;.c.v.",
"=.-.b.U X 0.W.~.~.%.p V./.~.~.~.~.^.J.x ) ~.~.!.a.X C *.x.b.x.=.",
"b.c.=.H % W j.J.!.T.T.!.~.~.~.~.~.~.~.T.T.W.H.j.' & { b.x.*.d.b.",
"*.-.n.;.U a - 9.C.L.E.!.~.~.~.~.^.Q.!.E.L.Z.w.- G x.;.*.x.b.z.=.",
"n.c.$.~ g :.1.6.7.y.i.k.A.U.E.W.E.A.l.p.y.y.6.1.l % Y n.x.=.v.n.",
"*.-.b.^ g ,.t.2.:.1.5.y.y.p.p.p.i.u.y.5.3.:.,.t.l + V @.x.b.-.=.",
"b.@.2 ' S.Z.l.R o h <.1.4.4.t.t.t.4.3.<.h o b g.N.V.' % I =.d.b.",
";.I   W F.A.N.K   0 w j k P.(.(.I.N j w 7 . v N.A.H.'   Y b.-.=.",
"b.=.A Z z z z *   e h h l e.r.r.e.l f f q . * z z z Y =.=.x.x.x.",
"-.-.v.+.C I +.4   P z.o. .8 O O 8 | o.z.} X & V H #.*.z.v.v.-.-.",
"d.z.-.x.c.x.=.5   L &...X.%     $ ~ #.&.P   2 @.=.x.d.c.x.-.x.x.",
"v.x.x.-.=.+.Y C 2 , : , < p C 2 1 : , : < V A { O.+.=.x.x.-.x.x.",
"x.x.x.x.*.+.{ { Y 5 1 4 5 Y { { I 2 1 5 C { { Y O.+.=.-.x.v.x.-.",
"c.x.;.x.v.-.+.@.+.{ Y O.O.Y } { { { Y { O.@.+.@.*.-.x.v.x.;.x.v.",
";.x.b.c.=.x.v.x.;.&.+.+.+.+.@.+.+.@.+.+.=.v.x.=.x.b.x.=.x.b.-.=.",
"b.x.=.x.b.x.=.x.b.-.=.v.v.;.=.v.v.=.;.v.v.=.-.b.x.=.x.b.-.=.v.b.",
"@.-.n.x.@.x.n.-.@.v.n.=.*.b.b.=.=.n.b.*.=.n.v.@.-.n.x.@.x.n.-.@."
};
